<svg style="width: 32px; height: 32px;" height="100%" width="100%" preserveAspectRatio="xMinYMin meet" viewBox="0 0 512 512" xmlns="http://www.w3.org/2000/svg"><path
   d="M160.504,512c-34.123-71.004-15.951-111.689,10.275-150.021c28.72-41.979,36.122-83.533,36.122-83.533  s22.577,29.35,13.546,75.254c39.886-44.4,47.413-115.14,41.391-142.232C351.995,274.473,390.526,410.895,338.599,512  c276.187-156.266,68.699-390.086,32.577-416.425c12.041,26.338,14.324,70.925-10,92.563C320,32,218.19,0,218.19,0  c12.041,80.522-43.648,168.572-97.348,234.365c-1.887-32.108-3.891-54.264-20.775-84.99c-3.79,58.328-48.366,105.874-60.437,164.314  C23.279,392.832,51.878,450.779,160.504,512z"
   id="path3"
   style="fill:#ff0000" /></svg>
